<svg id="e9TJeoWxqF11" xmlns="http://www.w3.org/2000/svg" xmlns:xlink="http://www.w3.org/1999/xlink" viewBox="0 0 300 300" shape-rendering="geometricPrecision" text-rendering="geometricPrecision" project-id="a43f6ba1dab94e2598d48227fa06da95" export-id="ca0fa2ba740e46178009849827770689" cached="false"><path d="M40.960938,4.980469c-.073872.002427-.147553.008948-.220704.019531L28,5c-.721272-.010201-1.392163.368751-1.755775.991746s-.363613,1.393513,0,2.016508s1.034503,1.001947,1.755775.991746h8.171875L22.585938,22.585938c-.522482.501633-.732951,1.246534-.550238,1.947418s.73006,1.24823,1.430944,1.430944s1.445785-.027756,1.947418-.550238L39,11.828125L39,20c-.010201.721272.368751,1.392163.991746,1.755775s1.393513.363613,2.016508,0s1.001947-1.034503.991746-1.755775v-12.753906c.078104-.581582-.103116-1.168124-.495666-1.604291s-.956829-.677956-1.543396-.661334ZM12.5,8C8.382688,8,5,11.382688,5,15.5v20C5,39.617312,8.382688,43,12.5,43h20c4.117312,0,7.5-3.382688,7.5-7.5v-9.5c.010201-.721272-.368751-1.392163-.991746-1.755775s-1.393513-.363613-2.016508,0-1.001947,1.034503-.991746,1.755775v9.5c0,1.946688-1.553312,3.5-3.5,3.5h-20C10.553312,39,9,37.446688,9,35.5v-20c0-1.946688,1.553312-3.5,3.5-3.5h9.5c.721272.010201,1.392163-.368751,1.755775-.991746s.363613-1.393513,0-2.016508-1.034503-1.001947-1.755775-.991746h-9.5Z" transform="matrix(6.86206 0 0 6.862051-14.75022-14.171009)" fill="#fff"/></svg>
