<svg width="419" height="419" viewBox="0 0 419 419" fill="none" xmlns="http://www.w3.org/2000/svg">
<g clip-path="url(#clip0_1_2)">
<path d="M272.548 203.962L118.915 99.2115C116.771 97.759 114.006 97.5984 111.715 98.8065C109.432 100.015 108 102.389 108 104.98V314.48C108 317.071 109.432 319.445 111.722 320.653C112.742 321.198 113.866 321.463 114.983 321.463C116.359 321.463 117.735 321.051 118.915 320.248L272.548 215.498C274.455 214.199 275.6 212.041 275.6 209.73C275.6 207.418 274.455 205.26 272.548 203.962ZM121.967 301.26V118.199L256.221 209.73L121.967 301.26Z" fill="white"/>
<path d="M209.5 0C93.9817 0 0 93.9817 0 209.5C0 325.018 93.9817 419 209.5 419C325.018 419 419 325.018 419 209.5C419 93.9817 325.018 0 209.5 0ZM209.5 405.033C101.684 405.033 13.9667 317.316 13.9667 209.5C13.9667 101.684 101.684 13.9667 209.5 13.9667C317.316 13.9667 405.033 101.684 405.033 209.5C405.033 317.316 317.316 405.033 209.5 405.033Z" fill="white"/>
<line x1="283.5" y1="99" x2="283.5" y2="321" stroke="white" stroke-width="15"/>
</g>
<defs>
<clipPath id="clip0_1_2">
<rect width="419" height="419" fill="white"/>
</clipPath>
</defs>
</svg>
