<svg width="419" height="419" viewBox="0 0 419 419" fill="none" xmlns="http://www.w3.org/2000/svg">
<g clip-path="url(#clip0_1_2)">
<path d="M146.452 215.038L300.085 319.788C302.229 321.241 304.994 321.402 307.285 320.194C309.568 318.985 311 316.611 311 314.02V104.52C311 101.929 309.568 99.5551 307.278 98.347C306.258 97.8023 305.134 97.5369 304.017 97.5369C302.641 97.5369 301.265 97.9489 300.085 98.752L146.452 203.502C144.545 204.801 143.4 206.959 143.4 209.27C143.4 211.582 144.545 213.74 146.452 215.038ZM297.033 117.74V300.801L162.779 209.27L297.033 117.74Z" fill="white"/>
<path d="M209.5 419C325.018 419 419 325.018 419 209.5C419 93.9817 325.018 1.33514e-05 209.5 1.33514e-05C93.9817 1.33514e-05 1.33514e-05 93.9817 1.33514e-05 209.5C1.33514e-05 325.018 93.9817 419 209.5 419ZM209.5 13.9667C317.316 13.9667 405.033 101.684 405.033 209.5C405.033 317.316 317.316 405.033 209.5 405.033C101.684 405.033 13.9667 317.316 13.9667 209.5C13.9667 101.684 101.684 13.9667 209.5 13.9667Z" fill="white"/>
<line x1="135.5" y1="320" x2="135.5" y2="98" stroke="white" stroke-width="15"/>
</g>
<defs>
<clipPath id="clip0_1_2">
<rect width="419" height="419" fill="white" transform="matrix(-1 0 0 -1 419 419)"/>
</clipPath>
</defs>
</svg>
